HIERARCHY
ROOT Hips
{
	OFFSET -50.672638 -52.785297 87.293335
	CHANNELS 6 Xposition Yposition Zposition Zrotation Yrotation Xrotation
	JOINT Spine
	{
		OFFSET 0.000000 2.080109 8.814247
		CHANNELS 6 Xposition Yposition Zposition Zrotation Yrotation Xrotation
		JOINT Spine1
		{
			OFFSET 0.000000 0.000000 8.844139
			CHANNELS 6 Xposition Yposition Zposition Zrotation Yrotation Xrotation
			JOINT Spine2
			{
				OFFSET 0.000000 0.000000 11.682266
				CHANNELS 6 Xposition Yposition Zposition Zrotation Yrotation Xrotation
				JOINT Spine3
				{
					OFFSET 0.000000 0.000004 11.746689
					CHANNELS 6 Xposition Yposition Zposition Zrotation Yrotation Xrotation
					JOINT Neck
					{
						OFFSET 0.000000 0.000000 17.658264
						CHANNELS 6 Xposition Yposition Zposition Zrotation Yrotation Xrotation
						JOINT Neck1
						{
							OFFSET 0.000000 0.000000 5.101517
							CHANNELS 6 Xposition Yposition Zposition Zrotation Yrotation Xrotation
							JOINT Head
							{
								OFFSET 0.000000 0.000000 5.101517
								CHANNELS 6 Xposition Yposition Zposition Zrotation Yrotation Xrotation
								JOINT HeadEnd
								{
									OFFSET 0.000000 0.000000 11.655090
									CHANNELS 6 Xposition Yposition Zposition Zrotation Yrotation Xrotation
									End Site
									{
										OFFSET 0.000000 0.000000 0.100006
									}
								}
							}
						}
					}
					JOINT RightShoulder
					{
						OFFSET -2.625389 0.000000 11.175217
						CHANNELS 6 Xposition Yposition Zposition Zrotation Yrotation Xrotation
						JOINT RightArm
						{
							OFFSET 0.000000 0.000000 10.434708
							CHANNELS 6 Xposition Yposition Zposition Zrotation Yrotation Xrotation
							JOINT RightForeArm
							{
								OFFSET 0.000000 0.000004 29.628418
								CHANNELS 6 Xposition Yposition Zposition Zrotation Yrotation Xrotation
								JOINT RightHand
								{
									OFFSET 0.000000 0.000000 22.857605
									CHANNELS 6 Xposition Yposition Zposition Zrotation Yrotation Xrotation
									JOINT RightHandThumb1
									{
										OFFSET -2.867325 -2.944290 3.959564
										CHANNELS 6 Xposition Yposition Zposition Zrotation Yrotation Xrotation
										JOINT RightHandThumb2
										{
											OFFSET 0.000000 0.000000 3.350403
											CHANNELS 6 Xposition Yposition Zposition Zrotation Yrotation Xrotation
											JOINT RightHandThumb3
											{
												OFFSET 0.000000 0.000000 3.756516
												CHANNELS 6 Xposition Yposition Zposition Zrotation Yrotation Xrotation
												JOINT RightHandThumb4
												{
													OFFSET 0.000000 0.000000 3.147339
													CHANNELS 6 Xposition Yposition Zposition Zrotation Yrotation Xrotation
													End Site
													{
														OFFSET 0.000000 0.000000 0.100006
													}
												}
											}
										}
									}
									JOINT RightHandIndex1
									{
										OFFSET -0.086754 -2.345280 10.030899
										CHANNELS 6 Xposition Yposition Zposition Zrotation Yrotation Xrotation
										JOINT RightHandIndex2
										{
											OFFSET 0.000000 0.000000 4.061096
											CHANNELS 6 Xposition Yposition Zposition Zrotation Yrotation Xrotation
											JOINT RightHandIndex3
											{
												OFFSET 0.000000 0.000000 3.248871
												CHANNELS 6 Xposition Yposition Zposition Zrotation Yrotation Xrotation
												JOINT RightHandIndex4
												{
													OFFSET 0.000000 0.000000 2.639709
													CHANNELS 6 Xposition Yposition Zposition Zrotation Yrotation Xrotation
													End Site
													{
														OFFSET 0.000000 0.000000 0.100006
													}
												}
											}
										}
									}
									JOINT RightHandMiddle1
									{
										OFFSET 0.104103 -0.006767 9.502945
										CHANNELS 6 Xposition Yposition Zposition Zrotation Yrotation Xrotation
										JOINT RightHandMiddle2
										{
											OFFSET 0.000000 0.000000 4.568726
											CHANNELS 6 Xposition Yposition Zposition Zrotation Yrotation Xrotation
											JOINT RightHandMiddle3
											{
												OFFSET 0.000000 0.000000 3.654984
												CHANNELS 6 Xposition Yposition Zposition Zrotation Yrotation Xrotation
												JOINT RightHandMiddle4
												{
													OFFSET 0.000000 0.000000 2.741241
													CHANNELS 6 Xposition Yposition Zposition Zrotation Yrotation Xrotation
													End Site
													{
														OFFSET 0.000000 0.000000 0.100006
													}
												}
											}
										}
									}
									JOINT RightHandRing1
									{
										OFFSET 0.086754 2.267441 8.921707
										CHANNELS 6 Xposition Yposition Zposition Zrotation Yrotation Xrotation
										JOINT RightHandRing2
										{
											OFFSET 0.000000 0.000000 4.061096
											CHANNELS 6 Xposition Yposition Zposition Zrotation Yrotation Xrotation
											JOINT RightHandRing3
											{
												OFFSET 0.000000 0.000000 3.654984
												CHANNELS 6 Xposition Yposition Zposition Zrotation Yrotation Xrotation
												JOINT RightHandRing4
												{
													OFFSET 0.000000 0.000000 2.741241
													CHANNELS 6 Xposition Yposition Zposition Zrotation Yrotation Xrotation
													End Site
													{
														OFFSET 0.000000 0.000000 0.100006
													}
												}
											}
										}
									}
									JOINT RightHandPinky1
									{
										OFFSET -0.173504 4.467197 7.976990
										CHANNELS 6 Xposition Yposition Zposition Zrotation Yrotation Xrotation
										JOINT RightHandPinky2
										{
											OFFSET 0.000000 0.000000 3.350403
											CHANNELS 6 Xposition Yposition Zposition Zrotation Yrotation Xrotation
											JOINT RightHandPinky3
											{
												OFFSET 0.000000 0.000000 2.842758
												CHANNELS 6 Xposition Yposition Zposition Zrotation Yrotation Xrotation
												JOINT RightHandPinky4
												{
													OFFSET 0.000000 0.000000 2.639709
													CHANNELS 6 Xposition Yposition Zposition Zrotation Yrotation Xrotation
													End Site
													{
														OFFSET 0.000000 0.000000 0.100006
													}
												}
											}
										}
									}
									JOINT RightForeArmEnd
									{
										OFFSET 0.000000 0.000000 0.000000
										CHANNELS 6 Xposition Yposition Zposition Zrotation Yrotation Xrotation
										End Site
										{
											OFFSET 0.000000 0.000000 0.100006
										}
									}
								}
								JOINT RightArmEnd
								{
									OFFSET 0.000000 0.000000 0.000000
									CHANNELS 6 Xposition Yposition Zposition Zrotation Yrotation Xrotation
									End Site
									{
										OFFSET 0.000000 0.000000 0.100006
									}
								}
							}
						}
					}
					JOINT LeftShoulder
					{
						OFFSET 2.625389 0.000000 11.175217
						CHANNELS 6 Xposition Yposition Zposition Zrotation Yrotation Xrotation
						JOINT LeftArm
						{
							OFFSET 0.000000 0.000000 10.813629
							CHANNELS 6 Xposition Yposition Zposition Zrotation Yrotation Xrotation
							JOINT LeftForeArm
							{
								OFFSET 0.000000 0.000004 28.724777
								CHANNELS 6 Xposition Yposition Zposition Zrotation Yrotation Xrotation
								JOINT LeftHand
								{
									OFFSET 0.644382 0.328873 25.716171
									CHANNELS 6 Xposition Yposition Zposition Zrotation Yrotation Xrotation
									JOINT LeftHandThumb1
									{
										OFFSET 2.867321 -2.944290 3.959564
										CHANNELS 6 Xposition Yposition Zposition Zrotation Yrotation Xrotation
										JOINT LeftHandThumb2
										{
											OFFSET 0.000000 0.000000 3.350403
											CHANNELS 6 Xposition Yposition Zposition Zrotation Yrotation Xrotation
											JOINT LeftHandThumb3
											{
												OFFSET 0.000000 0.000000 3.756516
												CHANNELS 6 Xposition Yposition Zposition Zrotation Yrotation Xrotation
												JOINT LeftHandThumb4
												{
													OFFSET 0.000000 0.000000 3.100006
													CHANNELS 6 Xposition Yposition Zposition Zrotation Yrotation Xrotation
													End Site
													{
														OFFSET 0.000000 0.000000 0.100006
													}
												}
											}
										}
									}
									JOINT LeftHandIndex1
									{
										OFFSET 0.086754 -2.345280 10.030899
										CHANNELS 6 Xposition Yposition Zposition Zrotation Yrotation Xrotation
										JOINT LeftHandIndex2
										{
											OFFSET 0.000000 0.000000 4.061096
											CHANNELS 6 Xposition Yposition Zposition Zrotation Yrotation Xrotation
											JOINT LeftHandIndex3
											{
												OFFSET 0.000000 0.000000 3.248871
												CHANNELS 6 Xposition Yposition Zposition Zrotation Yrotation Xrotation
												JOINT LeftHandIndex4
												{
													OFFSET 0.000000 0.000000 2.639709
													CHANNELS 6 Xposition Yposition Zposition Zrotation Yrotation Xrotation
													End Site
													{
														OFFSET 0.000000 0.000000 0.100006
													}
												}
											}
										}
									}
									JOINT LeftHandMiddle1
									{
										OFFSET -0.104103 -0.006767 9.502945
										CHANNELS 6 Xposition Yposition Zposition Zrotation Yrotation Xrotation
										JOINT LeftHandMiddle2
										{
											OFFSET 0.000000 0.000000 4.568726
											CHANNELS 6 Xposition Yposition Zposition Zrotation Yrotation Xrotation
											JOINT LeftHandMiddle3
											{
												OFFSET 0.000000 0.000000 3.654984
												CHANNELS 6 Xposition Yposition Zposition Zrotation Yrotation Xrotation
												JOINT LeftHandMiddle4
												{
													OFFSET 0.000000 0.000000 2.741241
													CHANNELS 6 Xposition Yposition Zposition Zrotation Yrotation Xrotation
													End Site
													{
														OFFSET 0.000000 0.000000 0.100006
													}
												}
											}
										}
									}
									JOINT LeftHandRing1
									{
										OFFSET -0.086754 2.267441 8.921707
										CHANNELS 6 Xposition Yposition Zposition Zrotation Yrotation Xrotation
										JOINT LeftHandRing2
										{
											OFFSET 0.000000 0.000000 4.061096
											CHANNELS 6 Xposition Yposition Zposition Zrotation Yrotation Xrotation
											JOINT LeftHandRing3
											{
												OFFSET 0.000000 0.000000 3.654984
												CHANNELS 6 Xposition Yposition Zposition Zrotation Yrotation Xrotation
												JOINT LeftHandRing4
												{
													OFFSET 0.000000 0.000000 2.741241
													CHANNELS 6 Xposition Yposition Zposition Zrotation Yrotation Xrotation
													End Site
													{
														OFFSET 0.000000 0.000000 0.100006
													}
												}
											}
										}
									}
									JOINT LeftHandPinky1
									{
										OFFSET 0.173504 4.467197 7.976990
										CHANNELS 6 Xposition Yposition Zposition Zrotation Yrotation Xrotation
										JOINT LeftHandPinky2
										{
											OFFSET 0.000000 0.000000 3.350403
											CHANNELS 6 Xposition Yposition Zposition Zrotation Yrotation Xrotation
											JOINT LeftHandPinky3
											{
												OFFSET 0.000000 0.000000 2.842758
												CHANNELS 6 Xposition Yposition Zposition Zrotation Yrotation Xrotation
												JOINT LeftHandPinky4
												{
													OFFSET 0.000000 0.000000 2.639709
													CHANNELS 6 Xposition Yposition Zposition Zrotation Yrotation Xrotation
													End Site
													{
														OFFSET 0.000000 0.000000 0.100006
													}
												}
											}
										}
									}
									JOINT LeftForeArmEnd
									{
										OFFSET 0.000000 0.000000 0.000000
										CHANNELS 6 Xposition Yposition Zposition Zrotation Yrotation Xrotation
										End Site
										{
											OFFSET 0.000000 0.000000 0.100006
										}
									}
								}
								JOINT LeftArmEnd
								{
									OFFSET 0.000000 0.000000 0.000000
									CHANNELS 6 Xposition Yposition Zposition Zrotation Yrotation Xrotation
									End Site
									{
										OFFSET 0.000000 0.000000 0.100006
									}
								}
							}
						}
					}
				}
			}
		}
	}
	JOINT RightUpLeg
	{
		OFFSET -11.289944 0.000000 0.000000
		CHANNELS 6 Xposition Yposition Zposition Zrotation Yrotation Xrotation
		JOINT RightLeg
		{
			OFFSET 0.000000 -0.000004 -38.200329
			CHANNELS 6 Xposition Yposition Zposition Zrotation Yrotation Xrotation
			JOINT RightFoot
			{
				OFFSET 0.000000 -0.000004 -39.900856
				CHANNELS 6 Xposition Yposition Zposition Zrotation Yrotation Xrotation
				JOINT RightToeBase
				{
					OFFSET 0.000000 -15.261639 0.000001
					CHANNELS 6 Xposition Yposition Zposition Zrotation Yrotation Xrotation
					JOINT RightToeBaseEnd
					{
						OFFSET 0.000000 -7.370712 0.000001
						CHANNELS 6 Xposition Yposition Zposition Zrotation Yrotation Xrotation
						End Site
						{
							OFFSET 0.000000 0.000000 0.100000
						}
					}
				}
				JOINT RightLegEnd
				{
					OFFSET 0.000000 0.000000 0.000000
					CHANNELS 6 Xposition Yposition Zposition Zrotation Yrotation Xrotation
					End Site
					{
						OFFSET 0.000000 0.000000 0.100000
					}
				}
			}
			JOINT RightUpLegEnd
			{
				OFFSET 0.000000 0.000000 0.000000
				CHANNELS 6 Xposition Yposition Zposition Zrotation Yrotation Xrotation
				End Site
				{
					OFFSET 0.000000 0.000000 0.099998
				}
			}
		}
	}
	JOINT LeftUpLeg
	{
		OFFSET 11.315662 0.000000 0.000000
		CHANNELS 6 Xposition Yposition Zposition Zrotation Yrotation Xrotation
		JOINT LeftLeg
		{
			OFFSET 0.000000 -0.000004 -38.200329
			CHANNELS 6 Xposition Yposition Zposition Zrotation Yrotation Xrotation
			JOINT LeftFoot
			{
				OFFSET 0.000000 -0.000004 -39.900856
				CHANNELS 6 Xposition Yposition Zposition Zrotation Yrotation Xrotation
				JOINT LeftToeBase
				{
					OFFSET 0.000000 -15.261639 0.000001
					CHANNELS 6 Xposition Yposition Zposition Zrotation Yrotation Xrotation
					JOINT LeftToeBaseEnd
					{
						OFFSET 0.000000 -7.539993 0.000001
						CHANNELS 6 Xposition Yposition Zposition Zrotation Yrotation Xrotation
						End Site
						{
							OFFSET 0.000000 0.000000 0.100000
						}
					}
				}
				JOINT LeftLegEnd
				{
					OFFSET 0.000000 0.000000 0.000000
					CHANNELS 6 Xposition Yposition Zposition Zrotation Yrotation Xrotation
					End Site
					{
						OFFSET 0.000000 0.000000 0.100000
					}
				}
			}
			JOINT LeftUpLegEnd
			{
				OFFSET 0.000000 0.000000 0.000000
				CHANNELS 6 Xposition Yposition Zposition Zrotation Yrotation Xrotation
				End Site
				{
					OFFSET 0.000000 0.000000 0.099998
				}
			}
		}
	}
}
MOTION
Frames: 2
Frame Time: 0.016667
-32.657867 -42.228069 83.534897 27.111666 1.535001 -7.090730 -0.000006 2.080113 8.814253 -0.507842 -2.119229 12.456172 -0.000001 -0.000004 8.844112 -0.451836 -2.345267 11.413179 0.000003 0.000002 11.682271 3.033953 2.121787 7.261426 0.000006 0.000003 11.746693 1.668124 1.964165 2.350511 0.000000 -0.000004 17.658253 28.606864 10.980818 10.567521 0.000000 -0.000002 5.101521 20.763705 2.875251 -10.126884 -0.000007 -0.000003 5.101553 3.419701 3.524076 -17.969731 -0.000001 -0.000001 11.655060 0.000000 0.000000 -0.000000 -2.625397 -0.000003 11.175198 9.747155 -80.877226 -0.223139 0.000001 0.000006 10.434706 -61.262023 -63.459431 52.359312 -0.000003 -0.000014 29.628439 18.180440 -0.757003 87.158849 -0.000004 0.000002 22.857595 -24.290914 39.389848 2.603955 -2.867338 -2.944277 3.959543 31.542121 -18.150162 50.178712 -0.000006 -0.000013 3.350396 -14.636445 9.151777 -26.138058 0.000006 -0.000012 3.756506 -9.712281 7.081445 -17.867937 0.000005 -0.000003 3.147324 0.000001 0.000000 -0.000001 -0.086760 -2.345282 10.030897 -13.546481 -22.563859 6.528627 0.000001 0.000000 4.061117 0.158868 -16.387864 2.368757 0.000002 0.000006 3.248866 -0.341178 -16.387751 2.368828 -0.000000 0.000007 2.639680 0.000001 0.000002 0.000001 0.104105 -0.006770 9.502939 -8.136699 -23.071245 2.754332 -0.000017 0.000000 4.568692 0.371379 -16.478035 0.888248 -0.000008 0.000001 3.654978 -0.128600 -16.477884 0.888192 0.000006 -0.000005 2.741214 0.000000 0.000000 -0.000004 0.086765 2.267445 8.921690 0.483732 -23.426794 -3.301807 0.000008 0.000005 4.061072 -0.844427 -16.765073 -1.055752 0.000014 -0.000002 3.654981 0.155569 -16.765099 -1.055748 0.000014 0.000000 2.741228 -0.000001 0.000002 0.000001 -0.173512 4.467198 7.976984 9.669701 -20.807828 -10.237120 0.000007 0.000003 3.350413 -1.565776 -15.740301 -3.140544 0.000009 0.000007 2.842766 0.434227 -15.740285 -3.140562 -0.000003 -0.000004 2.639698 0.000001 -0.000001 -0.000005 -0.000004 0.000005 -0.000028 0.000004 0.000002 -0.000001 -0.000001 0.000000 -0.000001 0.000001 -0.000001 0.000000 2.625379 -0.000002 11.175220 -5.203286 88.249350 -0.444099 0.000029 -0.000006 10.813637 63.019779 52.690856 43.791457 -0.000006 0.000018 28.724768 -18.280230 2.416771 99.412167 0.644384 0.328880 25.716175 29.781950 -20.222250 7.895482 2.867323 -2.944317 3.959571 -31.690736 16.746666 52.306835 0.000004 0.000005 3.350427 11.527930 -7.943511 -20.956313 0.000005 -0.000007 3.756514 7.690597 -5.973187 -14.361014 0.000001 -0.000009 3.100005 0.000002 -0.000002 -0.000000 0.086757 -2.345290 10.030922 -5.684775 18.169548 1.163608 0.000002 -0.000004 4.061121 0.303578 12.527339 -1.789501 0.000002 0.000008 3.248894 -0.196456 12.527574 -1.789561 0.000009 0.000010 2.639709 -0.000001 -0.000000 0.000001 -0.104102 -0.006781 9.502964 -0.558443 17.113063 0.233747 0.000007 -0.000006 4.568750 0.432378 12.119316 -0.644624 0.000007 0.000006 3.655010 -0.067606 12.119312 -0.644614 -0.000002 -0.000012 2.741243 0.000000 0.000001 -0.000000 -0.086750 2.267427 8.921709 7.515525 15.765007 -0.202747 0.000009 -0.000005 4.061105 -0.933929 11.142382 0.689982 -0.000017 0.000003 3.655008 0.066235 11.142383 0.690037 -0.000004 0.000004 2.741224 0.000000 -0.000000 0.000002 0.173517 4.467184 7.976997 15.686441 13.599707 -0.956042 0.000008 0.000003 3.350417 -1.858235 9.090656 1.782668 0.000000 -0.000001 2.842770 0.141708 9.093033 1.782621 -0.000005 -0.000006 2.639692 0.000002 -0.000001 0.000002 0.000004 -0.000011 0.000014 0.000002 -0.000002 -0.000000 -0.000000 0.000000 0.000013 -0.000000 0.000000 0.000003 -11.289950 0.000000 -0.000014 12.680870 4.999417 -4.215367 0.000004 0.000000 -38.200325 -1.144782 0.885140 37.706350 -0.000000 -0.000003 -39.900848 -5.188767 -4.355474 6.327407 -0.000008 -15.261644 0.000002 -1.518055 0.463154 -31.213114 -0.000002 -7.370712 -0.000002 -0.000000 0.000000 0.000001 -0.000006 -0.000008 0.000002 0.000004 0.000000 0.000002 0.000003 0.000000 0.000004 -0.000002 0.000000 0.000000 11.315653 0.000011 0.000000 -6.776439 -0.536044 -18.539891 -0.000008 0.000004 -38.200325 0.138380 -0.111413 39.014956 -0.000000 -0.000001 -39.900848 7.778411 -4.604444 12.676450 -0.000001 -15.261648 0.000003 0.100603 0.281101 -26.955444 0.000000 -7.540001 0.000001 -0.000000 -0.000000 -0.000000 0.000001 0.000005 -0.000001 -0.000002 0.000000 -0.000001 -0.000003 0.000005 0.000009 -0.000001 0.000000 -0.000001 
-33.380867 -42.220436 83.464447 29.130101 1.408878 -6.700045 0.000001 2.080113 8.814241 -0.620762 -2.387472 12.581488 0.000001 0.000005 8.844134 -0.504981 -2.422823 11.432033 -0.000001 -0.000001 11.682264 2.793564 2.070754 7.066735 -0.000000 0.000005 11.746711 1.566001 1.974575 2.247572 0.000004 -0.000001 17.658276 28.937073 11.499597 10.935579 0.000004 -0.000008 5.101518 20.838637 2.882670 -9.974841 0.000001 0.000002 5.101513 3.445457 3.549655 -17.669139 0.000001 -0.000000 11.655061 -0.000000 0.000001 -0.000000 -2.625400 -0.000009 11.175219 9.674461 -80.597127 -0.212154 0.000004 0.000004 10.434713 -61.256531 -63.834565 51.855503 -0.000005 -0.000013 29.628454 18.123946 -0.764231 87.124377 0.000006 0.000011 22.857605 -24.105411 39.313787 2.607476 -2.867340 -2.944300 3.959547 31.555481 -17.972594 50.443788 0.000004 -0.000001 3.350386 -14.241525 9.016034 -25.485975 0.000000 -0.000005 3.756502 -9.455598 6.949662 -17.426994 -0.000003 0.000002 3.147325 0.000002 0.000001 -0.000001 -0.086740 -2.345286 10.030931 -13.273948 -21.563245 6.520408 0.000012 0.000000 4.061081 0.188220 -15.690171 2.262509 0.000007 0.000001 3.248847 -0.311778 -15.690179 2.262528 0.000001 -0.000000 2.639694 0.000001 -0.000000 0.000000 0.104078 -0.006776 9.502962 -7.901306 -22.071533 2.706180 0.000010 -0.000012 4.568734 0.382603 -15.765914 0.847805 -0.000012 -0.000004 3.654973 -0.117388 -15.765905 0.847801 0.000001 -0.000007 2.741212 -0.000001 -0.000001 -0.000002 0.086763 2.267439 8.921688 0.672198 -22.322926 -3.365567 0.000002 -0.000003 4.061100 -0.859028 -15.987246 -1.004001 0.000016 0.000005 3.654992 0.140999 -15.986025 -1.003990 0.000006 0.000001 2.741241 -0.000001 0.000001 0.000002 -0.173494 4.467187 7.977007 9.792985 -19.620726 -10.227433 -0.000005 -0.000005 3.350408 -1.610430 -14.933538 -2.971698 0.000006 -0.000004 2.842772 0.389555 -14.933546 -2.971682 0.000003 0.000000 2.639695 0.000002 0.000003 0.000002 -0.000007 -0.000003 -0.000004 -0.000001 -0.000002 0.000002 0.000002 0.000006 -0.000001 0.000000 -0.000003 -0.000001 2.625388 -0.000008 11.175203 -5.265085 88.398897 -0.507095 -0.000010 0.000011 10.813627 63.096844 52.659488 43.826257 0.000008 0.000018 28.724764 -17.958089 2.357595 99.379519 0.644384 0.328890 25.716167 30.355242 -21.010246 7.655628 2.867315 -2.944315 3.959587 -31.715936 16.574082 52.574200 -0.000003 0.000010 3.350437 11.148174 -7.773129 -20.314630 -0.000004 -0.000004 3.756553 7.443076 -5.826113 -13.925975 0.000001 -0.000000 3.100007 -0.000001 -0.000000 -0.000001 0.086753 -2.345276 10.030904 -5.833415 17.189768 1.639537 0.000007 -0.000002 4.061108 0.326237 11.796071 -1.681889 0.000007 0.000008 3.248880 -0.173767 11.796063 -1.681893 -0.000003 0.000008 2.639708 0.000002 -0.000001 0.000001 -0.104105 -0.006763 9.502939 -0.724017 16.171292 0.506623 -0.000005 0.000008 4.568727 0.439149 11.439485 -0.607619 0.000007 -0.000008 3.654997 -0.060867 11.439471 -0.607628 0.000004 0.000002 2.741226 -0.000001 0.000000 0.000000 -0.086749 2.267444 8.921732 7.339878 14.930382 -0.159765 0.000001 0.000004 4.061102 -0.939703 10.553976 0.652937 0.000000 -0.000008 3.654987 0.060312 10.553962 0.652908 0.000003 0.000006 2.741242 0.000001 0.000001 0.000000 0.173507 4.467200 7.977028 15.526820 12.935674 -1.050921 0.000001 0.000001 3.350411 -1.872538 8.626779 1.689905 -0.000003 0.000003 2.842763 0.127474 8.626771 1.689920 0.000002 0.000003 2.639706 -0.000001 -0.000003 0.000001 0.000000 0.000004 0.000016 -0.000001 0.000001 0.000000 0.000001 0.000011 -0.000016 -0.000001 -0.000001 0.000001 -11.289947 -0.000005 -0.000014 9.545691 4.984572 -4.723259 -0.000003 -0.000007 -38.200340 -1.055444 0.825478 38.025613 0.000001 0.000003 -39.900856 -5.650780 -3.887150 5.646767 -0.000004 -15.261641 0.000001 -1.423578 0.436530 -30.407374 0.000007 -7.370712 -0.000001 -0.000001 0.000000 0.000000 -0.000007 -0.000003 0.000002 0.000003 0.000003 -0.000001 0.000001 0.000004 -0.000004 0.000001 -0.000001 -0.000001 11.315660 0.000004 0.000000 -8.062396 -0.780733 -19.395367 -0.000003 -0.000011 -38.200329 0.135878 -0.108322 38.890049 -0.000001 -0.000002 -39.900852 6.838119 -4.395071 13.295709 -0.000000 -15.261643 0.000006 0.109442 0.237706 -26.901246 -0.000001 -7.539992 -0.000000 -0.000002 0.000000 0.000000 -0.000001 0.000004 -0.000001 -0.000000 0.000001 -0.000002 -0.000003 0.000008 0.000000 -0.000001 0.000000 -0.000000 
